<svg data-name="Layer 1" xmlns="http://www.w3.org/2000/svg" viewBox="0 0 599.47 335.82"><path d="M33.32 33.44c4.32-1.83 13.26-7.56 15.63-24.11h500.86c2.32 16.24 11 22.06 15.39 24a13.29 13.29 0 0 0 2.61.89M41.18.38h516.39l1.1 7.68c1.68 11.72 7.07 15.73 10.13 17.08a6.07 6.07 0 0 0 .93.34L566.13 43a21.74 21.74 0 0 1-4.55-1.49c-4.51-2-14.45-8-19-23.25H56.15c-4.58 15.51-14.74 21.45-19.34 23.4l-7-16.49c2.5-1.06 8.5-4.85 10.26-17.13zM.38 56.79v-9.58c14.4-.14 21.45-7.82 21.45-7.82C32.66 28.54 19 14.94 19 14.94 13.37 9.29 5.88 7.63 2.28 11.23S.34 22.32 6 28a23.26 23.26 0 0 0 14.74 6.41M599.1 56.79v-9.58c-14.4-.14-21.45-7.82-21.45-7.82-10.84-10.84 2.81-24.45 2.81-24.45 5.64-5.64 13.14-7.3 16.73-3.71s1.94 11.09-3.7 16.74a23.18 23.18 0 0 1-13.93 6.34m-13.41 268.07c-4.32 1.83-13.26 7.56-15.63 24.11H49.67c-2.33-16.24-11-22.06-15.39-24a13.33 13.33 0 0 0-2.61-.89m526.62 33.85H41.91l-1.1-7.68C39.13 316 33.74 312 30.68 310.68a6 6 0 0 0-.93-.34l3.59-17.55a21.66 21.66 0 0 1 4.55 1.49c4.51 2 14.46 8 19 23.25h486.43c4.58-15.51 14.74-21.45 19.34-23.4l7 16.49c-2.5 1.06-8.5 4.85-10.26 17.13zM599.1 56.79v231.82c-14.4.14-21.45 7.82-21.45 7.82-10.84 10.84 2.82 24.45 2.82 24.45 5.64 5.64 13.13 7.3 16.73 3.71s1.94-11.09-3.7-16.74a23.25 23.25 0 0 0-14.74-6.41M.38 56.79v231.82c14.4.14 21.45 7.82 21.45 7.82C32.66 307.28 19 320.88 19 320.88c-5.64 5.64-13.14 7.3-16.73 3.71S.34 313.49 6 307.85a23.17 23.17 0 0 1 13.93-6.34" fill="none" stroke="#000" stroke-miterlimit="10" stroke-width=".75"/></svg>
